<svg width="213" height="154" viewBox="0 0 213 154" fill="none" xmlns="http://www.w3.org/2000/svg">
<path d="M202.32 34.456V127H193.488C192.123 127 190.971 126.787 190.032 126.36C189.136 125.891 188.261 125.123 187.408 124.056L139.088 62.36C139.344 65.176 139.472 67.7787 139.472 70.168V127H124.304V34.456H133.328C134.053 34.456 134.672 34.4987 135.184 34.584C135.739 34.6267 136.208 34.7547 136.592 34.968C137.019 35.1387 137.424 35.416 137.808 35.8C138.192 36.1413 138.619 36.6107 139.088 37.208L187.6 99.16C187.472 97.6667 187.365 96.1947 187.28 94.744C187.195 93.2933 187.152 91.9493 187.152 90.712V34.456H202.32Z" fill="#B31818"/>
<path d="M136.064 33.752L107.264 127H87.68L70.144 69.208C69.8027 68.312 69.4827 67.3307 69.184 66.264C68.8853 65.1547 68.5867 64.0027 68.288 62.808C67.9893 64.0027 67.6907 65.1547 67.392 66.264C67.0933 67.3307 66.7733 68.312 66.432 69.208L48.64 127H29.056L0.256 33.752H18.432C20.3093 33.752 21.8667 34.1787 23.104 35.032C24.384 35.8853 25.216 37.016 25.6 38.424L38.4 87.064C38.784 88.6 39.168 90.2853 39.552 92.12C39.936 93.912 40.32 95.7893 40.704 97.752C41.472 93.7413 42.4107 90.1787 43.52 87.064L58.624 38.424C59.008 37.2293 59.8187 36.1627 61.056 35.224C62.336 34.2427 63.872 33.752 65.664 33.752H72.064C73.9413 33.752 75.456 34.2 76.608 35.096C77.76 35.9493 78.6347 37.0587 79.232 38.424L94.208 87.064C95.3173 90.0507 96.256 93.4427 97.024 97.24C97.3653 95.32 97.7067 93.528 98.048 91.864C98.432 90.1573 98.816 88.5573 99.2 87.064L112 38.424C112.341 37.1867 113.152 36.0987 114.432 35.16C115.712 34.2213 117.248 33.752 119.04 33.752H136.064Z" fill="black"/>
<path d="M136.064 33.752L137.019 34.0471L137.419 32.752H136.064V33.752ZM107.264 127V128H108.002L108.219 127.295L107.264 127ZM87.68 127L86.7231 127.29L86.9384 128H87.68V127ZM70.144 69.208L71.1009 68.9176L71.0908 68.8844L71.0785 68.852L70.144 69.208ZM69.184 66.264L68.2183 66.524L68.221 66.5336L69.184 66.264ZM68.288 62.808L69.2581 62.5655H67.3179L68.288 62.808ZM67.392 66.264L68.355 66.5336L68.3576 66.524L67.392 66.264ZM66.432 69.208L65.4975 68.852L65.4859 68.8825L65.4763 68.9138L66.432 69.208ZM48.64 127V128H49.3785L49.5957 127.294L48.64 127ZM29.056 127L28.1005 127.295L28.3182 128H29.056V127ZM0.256 33.752V32.752H-1.09946L-0.699467 34.0471L0.256 33.752ZM23.104 35.032L22.5363 35.8552L22.5428 35.8597L22.5493 35.864L23.104 35.032ZM25.6 38.424L26.5671 38.1695L26.5648 38.1609L25.6 38.424ZM38.4 87.064L39.3702 86.8214L39.3671 86.8095L38.4 87.064ZM39.552 92.12L38.5732 92.3249L38.5742 92.3295L39.552 92.12ZM40.704 97.752L39.7226 97.944L41.6862 97.9401L40.704 97.752ZM43.52 87.064L44.462 87.3995L44.4689 87.3802L44.475 87.3606L43.52 87.064ZM58.624 38.424L57.6719 38.118L57.669 38.1274L58.624 38.424ZM61.056 35.224L61.6604 36.0207L61.6644 36.0176L61.056 35.224ZM76.608 35.096L75.9941 35.8853L76.0033 35.8926L76.0128 35.8995L76.608 35.096ZM79.232 38.424L80.1877 38.1297L80.171 38.0753L80.1482 38.0232L79.232 38.424ZM94.208 87.064L93.2523 87.3583L93.2607 87.3855L93.2706 87.4122L94.208 87.064ZM97.024 97.24L96.0438 97.4382L98.0086 97.415L97.024 97.24ZM98.048 91.864L97.0724 91.6445L97.0703 91.6538L97.0684 91.6631L98.048 91.864ZM99.2 87.064L98.2329 86.8095L98.2315 86.815L99.2 87.064ZM112 38.424L111.036 38.158L111.033 38.1695L112 38.424ZM135.109 33.4569L106.309 126.705L108.219 127.295L137.019 34.0471L135.109 33.4569ZM107.264 126H87.68V128H107.264V126ZM88.6369 126.71L71.1009 68.9176L69.1871 69.4984L86.7231 127.29L88.6369 126.71ZM71.0785 68.852C70.7495 67.9883 70.4387 67.0362 70.147 65.9944L68.221 66.5336C68.5267 67.6251 68.8559 68.6357 69.2095 69.564L71.0785 68.852ZM70.1496 66.004C69.8526 64.9009 69.5555 63.7547 69.2581 62.5655L67.3179 63.0505C67.6179 64.2506 67.9181 65.4084 68.2184 66.524L70.1496 66.004ZM67.3179 62.5655C67.0205 63.7547 66.7234 64.9009 66.4264 66.004L68.3576 66.524C68.658 65.4084 68.9581 64.2506 69.2581 63.0505L67.3179 62.5655ZM66.429 65.9944C66.1373 67.0362 65.8265 67.9883 65.4975 68.852L67.3665 69.564C67.7201 68.6357 68.0493 67.6251 68.355 66.5336L66.429 65.9944ZM65.4763 68.9138L47.6843 126.706L49.5957 127.294L67.3877 69.5022L65.4763 68.9138ZM48.64 126H29.056V128H48.64V126ZM30.0115 126.705L1.21147 33.4569L-0.699467 34.0471L28.1005 127.295L30.0115 126.705ZM0.256 34.752H18.432V32.752H0.256V34.752ZM18.432 34.752C20.1573 34.752 21.5033 35.1428 22.5363 35.8552L23.6717 34.2088C22.23 33.2145 20.4613 32.752 18.432 32.752V34.752ZM22.5493 35.864C23.6402 36.5913 24.3184 37.5254 24.6352 38.6871L26.5648 38.1609C26.1136 36.5066 25.1278 35.1793 23.6587 34.1999L22.5493 35.864ZM24.6329 38.6785L37.4329 87.3185L39.3671 86.8095L26.5671 38.1695L24.6329 38.6785ZM37.4299 87.3065C37.8102 88.828 38.1914 90.5006 38.5732 92.3249L40.5308 91.9151C40.1446 90.0701 39.7578 88.372 39.3701 86.8215L37.4299 87.3065ZM38.5742 92.3295C38.9568 94.1152 39.3397 95.9867 39.7226 97.944L41.6854 97.56C41.3004 95.592 40.9152 93.7088 40.5298 91.9105L38.5742 92.3295ZM41.6862 97.9401C42.4467 93.9684 43.3732 90.4565 44.462 87.3995L42.578 86.7285C41.4481 89.9008 40.4973 93.5143 39.7218 97.5639L41.6862 97.9401ZM44.475 87.3606L59.579 38.7206L57.669 38.1274L42.565 86.7674L44.475 87.3606ZM59.576 38.73C59.8837 37.7729 60.5473 36.8651 61.6604 36.0207L60.4516 34.4273C59.0901 35.4602 58.1323 36.6858 57.672 38.118L59.576 38.73ZM61.6644 36.0176C62.7504 35.185 64.0662 34.752 65.664 34.752V32.752C63.6778 32.752 61.9216 33.3003 60.4476 34.4304L61.6644 36.0176ZM65.664 34.752H72.064V32.752H65.664V34.752ZM72.064 34.752C73.7833 34.752 75.0624 35.1607 75.9941 35.8853L77.2219 34.3066C75.8496 33.2393 74.0994 32.752 72.064 32.752V34.752ZM76.0128 35.8995C77.0188 36.6448 77.7856 37.6129 78.3158 38.8248L80.1482 38.0232C79.4837 36.5045 78.5012 35.2539 77.2032 34.2924L76.0128 35.8995ZM78.2763 38.7183L93.2523 87.3583L95.1637 86.7697L80.1877 38.1297L78.2763 38.7183ZM93.2706 87.4122C94.3584 90.341 95.284 93.6814 96.0438 97.4382L98.0042 97.0418C97.228 93.2039 96.2763 89.7604 95.1454 86.7158L93.2706 87.4122ZM98.0086 97.415C98.3486 95.5025 98.6883 93.7192 99.0276 92.0649L97.0684 91.6631C96.7251 93.3368 96.3821 95.1375 96.0394 97.065L98.0086 97.415ZM99.0236 92.0835C99.4057 90.3854 99.7873 88.7954 100.168 87.313L98.2315 86.815C97.8447 88.3193 97.4583 89.9292 97.0724 91.6445L99.0236 92.0835ZM100.167 87.3185L112.967 38.6785L111.033 38.1695L98.2329 86.8095L100.167 87.3185ZM112.964 38.6899C113.232 37.7169 113.881 36.8043 115.023 35.9664L113.841 34.3536C112.423 35.3931 111.45 36.6564 111.036 38.1581L112.964 38.6899ZM115.023 35.9664C116.11 35.1695 117.432 34.752 119.04 34.752V32.752C117.064 32.752 115.314 33.2732 113.841 34.3536L115.023 35.9664ZM119.04 34.752H136.064V32.752H119.04V34.752Z" fill="white"/>
</svg>
